<?xml version="1.0" encoding="UTF-8"?>
<svg
  xmlns="http://www.w3.org/2000/svg"
  viewBox="0 0 78.667 78.667"
  fill="#176b5b"
>
  <g>
    <g>
      <path d="M59.499,32.608c-0.146-1.504,0.607-17.444-0.772-18.357c-0.213-1.381-0.689-2.691-0.689-2.691s-0.483,1.194-0.7,2.696 c-1.108,1.258-0.773,11.312-1.04,16.285c-0.029,0.566-0.308,1.658-0.317,2.25C55.955,34.292,59.693,34.583,59.499,32.608z"/>
      <path d="M50.686,34.304c-4.001-4.014-9.303-10.163-10.925-9.831c-1.124-0.827-2.389-1.416-2.389-1.416s0.501,1.186,1.411,2.401 c0.105,1.672,4.848,5.942,8.176,9.649c0.669,0.742,2.372,3.172,3.135,3.394c1.597,0.462,2.555-2.144,1.733-3.095 C51.411,34.922,50.978,34.596,50.686,34.304z"/>
      <path d="M76.27,24.582c-1.674,0.105-5.944,4.852-9.653,8.178c-0.608,0.548-2.039,1.814-2.652,2.443 c-1.202,1.226,0.905,3.25,1.804,3.004c0.906-0.243,1.236-1.308,1.651-1.721c4.015-4.002,10.165-9.305,9.832-10.928 c0.828-1.124,1.416-2.387,1.416-2.387S77.483,23.673,76.27,24.582z"/>
      <path d="M57.976,38.136c-1.45,0.418-2.336,1.427-2.76,2.762c-0.456,1.451,1.722,2.317,2.76,2.758 c1.405,0.596,2.986-1.818,2.763-2.758C60.38,39.415,59.44,37.716,57.976,38.136z"/>
      <path d="M19.17,55.967c-0.194,1.976,3.544,1.684,3.52,0.183c-0.009-0.588-0.288-1.684-0.318-2.249 c-0.266-4.973,0.068-15.025-1.039-16.284c-0.217-1.502-0.7-2.696-0.7-2.696s-0.477,1.312-0.689,2.691 C18.562,38.52,19.317,54.462,19.17,55.967z"/>
      <path d="M27.983,57.662c-0.292,0.292-0.724,0.618-1.138,1.1c-0.822,0.951,0.138,3.556,1.734,3.095 c0.762-0.219,2.464-2.65,3.132-3.394c3.329-3.707,8.073-7.978,8.178-9.649c0.911-1.218,1.411-2.399,1.411-2.399 s-1.266,0.589-2.389,1.414C37.287,47.5,31.986,53.646,27.983,57.662z"/>
      <path d="M12.052,56.118c-3.707-3.326-7.977-8.073-9.651-8.178C1.184,47.03,0,46.528,0,46.528s0.589,1.264,1.416,2.388 c-0.332,1.622,5.818,6.924,9.832,10.929c0.415,0.411,0.747,1.479,1.651,1.72c0.901,0.242,3.006-1.778,1.806-3.004 C14.091,57.934,12.662,56.665,12.052,56.118z"/>
      <path d="M20.693,61.494c-1.464-0.42-2.401,1.279-2.761,2.763c-0.226,0.939,1.357,3.353,2.761,2.758 c1.037-0.44,3.219-1.308,2.761-2.758C23.031,62.922,22.146,61.911,20.693,61.494z"/>
    </g>
  </g>
</svg>
